{
    "asset" : {
        "generator" : "Khronos glTF Blender I/O v3.3.27",
        "version" : "2.0"
    },
    "scene" : 0,
    "scenes" : [
        {
            "name" : "Scene",
            "nodes" : [
                0
            ]
        }
    ],
    "nodes" : [
        {
            "mesh" : 0,
            "name" : "Cylinder.001",
            "rotation" : [
                0,
                0,
                -0.7071067094802856,
                0.7071068286895752
            ],
            "translation" : [
                -2.5173518657684326,
                1.33444082736969,
                -0.24646082520484924
            ]
        }
    ],
    "materials" : [
        {
            "doubleSided" : true,
            "name" : "Material.001",
            "pbrMetallicRoughness" : {
                "baseColorTexture" : {
                    "index" : 0
                },
                "metallicFactor" : 0,
                "roughnessFactor" : 0.5
            }
        },
        {
            "doubleSided" : true,
            "name" : "Material",
            "pbrMetallicRoughness" : {
                "baseColorTexture" : {
                    "index" : 1
                },
                "metallicFactor" : 0,
                "roughnessFactor" : 0.5
            }
        }
    ],
    "meshes" : [
        {
            "name" : "Cylinder.001",
            "primitives" : [
                {
                    "attributes" : {
                        "POSITION" : 0,
                        "NORMAL" : 1,
                        "TEXCOORD_0" : 2
                    },
                    "indices" : 3,
                    "material" : 0
                },
                {
                    "attributes" : {
                        "POSITION" : 4,
                        "NORMAL" : 5,
                        "TEXCOORD_0" : 6
                    },
                    "indices" : 7,
                    "material" : 1
                }
            ]
        }
    ],
    "textures" : [
        {
            "sampler" : 0,
            "source" : 0
        },
        {
            "sampler" : 0,
            "source" : 1
        }
    ],
    "images" : [
        {
            "mimeType" : "image/jpeg",
            "name" : "barrel_texture",
            "uri" : "barrel_texture.jpg"
        },
        {
            "mimeType" : "image/png",
            "name" : "stonefloortexture",
            "uri" : "stonefloortexture.png"
        }
    ],
    "accessors" : [
        {
            "bufferView" : 0,
            "componentType" : 5126,
            "count" : 432,
            "max" : [
                1.1333658695220947,
                3.6507177352905273,
                1.3798266649246216
            ],
            "min" : [
                -1.3228033781051636,
                -1.16512131690979,
                -1.1333658695220947
            ],
            "type" : "VEC3"
        },
        {
            "bufferView" : 1,
            "componentType" : 5126,
            "count" : 432,
            "type" : "VEC3"
        },
        {
            "bufferView" : 2,
            "componentType" : 5126,
            "count" : 432,
            "type" : "VEC2"
        },
        {
            "bufferView" : 3,
            "componentType" : 5123,
            "count" : 696,
            "type" : "SCALAR"
        },
        {
            "bufferView" : 4,
            "componentType" : 5126,
            "count" : 24,
            "max" : [
                1.2008129358291626,
                5.75871467590332,
                6.04426383972168
            ],
            "min" : [
                1.0168755054473877,
                -5.836891174316406,
                -5.551342010498047
            ],
            "type" : "VEC3"
        },
        {
            "bufferView" : 5,
            "componentType" : 5126,
            "count" : 24,
            "type" : "VEC3"
        },
        {
            "bufferView" : 6,
            "componentType" : 5126,
            "count" : 24,
            "type" : "VEC2"
        },
        {
            "bufferView" : 7,
            "componentType" : 5123,
            "count" : 36,
            "type" : "SCALAR"
        }
    ],
    "bufferViews" : [
        {
            "buffer" : 0,
            "byteLength" : 5184,
            "byteOffset" : 0,
            "target" : 34962
        },
        {
            "buffer" : 0,
            "byteLength" : 5184,
            "byteOffset" : 5184,
            "target" : 34962
        },
        {
            "buffer" : 0,
            "byteLength" : 3456,
            "byteOffset" : 10368,
            "target" : 34962
        },
        {
            "buffer" : 0,
            "byteLength" : 1392,
            "byteOffset" : 13824,
            "target" : 34963
        },
        {
            "buffer" : 0,
            "byteLength" : 288,
            "byteOffset" : 15216,
            "target" : 34962
        },
        {
            "buffer" : 0,
            "byteLength" : 288,
            "byteOffset" : 15504,
            "target" : 34962
        },
        {
            "buffer" : 0,
            "byteLength" : 192,
            "byteOffset" : 15792,
            "target" : 34962
        },
        {
            "buffer" : 0,
            "byteLength" : 72,
            "byteOffset" : 15984,
            "target" : 34963
        }
    ],
    "samplers" : [
        {
            "magFilter" : 9729,
            "minFilter" : 9987
        }
    ],
    "buffers" : [
        {
            "byteLength" : 16056,
            "uri" : "barrelwithfloor.bin"
        }
    ]
}
